<svg width="1000" height="1000" viewBox="0 0 1000 1000" fill="none" xmlns="http://www.w3.org/2000/svg">
<path d="M1000 170.56C1000 486.832 166.055 835.926 102.908 835.926C67.5048 835.926 27.3365 821.007 27.3365 761.335C27.3365 741.397 39.9231 712.581 62.0097 677.841L61.9852 677.865L3.44594 487.701C-4.48053 461.956 1.80379 429.34 16.8038 418.358L26.8642 410.995C45.0979 397.647 65.6192 399.637 82.977 416.435L189.25 519.295C230.627 474.425 277.565 427.446 327.037 381.193L119.938 135.545C103.554 116.109 103.729 72.1531 120.266 53.1595L137.207 33.6998C165.403 1.31377 199.681 -8.25175 231.877 7.27357L576.404 173.419C683.825 95.4665 780.948 42.2615 838.435 42.2615C853.788 42.2615 869.163 43.0054 884.002 44.9442L779.957 130.816L777.467 194.799L938.072 59.8213C976.57 76.6072 1000 107.936 1000 170.56ZM580.869 716.512L709.379 983.415C717.211 999.681 729.966 1004.58 740.712 995.445L757.923 980.819C789.309 954.148 807.794 893.672 803.774 830.826L787.686 579.332C786.689 563.771 778.052 553.922 769.969 559.126L586.459 677.312C577.528 683.069 574.609 703.514 580.869 716.512Z" fill="#FDCB6E"/>
</svg>
